<svg xmlns="http://www.w3.org/2000/svg" viewBox="0 0 800 800">
	<path
		fill="none"
		stroke=""
		stroke-linecap="round"
		stroke-opacity=".25"
		stroke-width="2"
		d="M5 19.987c14.583 1.25 38.75 10.166 70 6 31.25-4.167 46.667-26.625 80-26s46.667 27.75 80 29 46.667-23.625 80-23 46.667 24.75 80 26 46.667-20.625 80-20 46.667 23.208 80 23c33.333-.209 46.667-25.042 80-24 33.333 1.041 46.667 27.958 80 29 33.333 1.041 63.333-19 80-24m-790 764c14.583 1.25 38.75 10.166 70 6 31.25-4.167 46.667-26.625 80-26s46.667 27.75 80 29 46.667-23.625 80-23 46.667 24.75 80 26 46.667-20.625 80-20 46.667 23.208 80 23c33.333-.209 46.667-25.042 80-24 33.333 1.041 46.667 27.958 80 29 33.333 1.041 63.333-19 80-24m-790-36c14.583 1.25 38.75 10.166 70 6 31.25-4.167 46.667-26.625 80-26s46.667 27.75 80 29 46.667-23.625 80-23 46.667 24.75 80 26 46.667-20.625 80-20 46.667 23.208 80 23c33.333-.209 46.667-25.042 80-24 33.333 1.041 46.667 27.958 80 29 33.333 1.041 63.333-19 80-24m-790-36c14.583 1.25 38.75 10.166 70 6 31.25-4.167 46.667-26.625 80-26s46.667 27.75 80 29 46.667-23.625 80-23 46.667 24.75 80 26 46.667-20.625 80-20 46.667 23.208 80 23c33.333-.209 46.667-25.042 80-24 33.333 1.041 46.667 27.958 80 29 33.333 1.041 63.333-19 80-24m-790-36c14.583 1.25 38.75 10.166 70 6 31.25-4.167 46.667-26.625 80-26s46.667 27.75 80 29 46.667-23.625 80-23 46.667 24.75 80 26 46.667-20.625 80-20 46.667 23.208 80 23c33.333-.209 46.667-25.042 80-24 33.333 1.041 46.667 27.958 80 29 33.333 1.041 63.333-19 80-24m-790-36c14.583 1.25 38.75 10.166 70 6 31.25-4.167 46.667-26.625 80-26s46.667 27.75 80 29 46.667-23.625 80-23 46.667 24.75 80 26 46.667-20.625 80-20 46.667 23.208 80 23c33.333-.209 46.667-25.042 80-24 33.333 1.041 46.667 27.958 80 29 33.333 1.041 63.333-19 80-24m-790-36c14.583 1.25 38.75 10.166 70 6 31.25-4.167 46.667-26.625 80-26s46.667 27.75 80 29 46.667-23.625 80-23 46.667 24.75 80 26 46.667-20.625 80-20 46.667 23.208 80 23c33.333-.209 46.667-25.042 80-24 33.333 1.041 46.667 27.958 80 29 33.333 1.041 63.333-19 80-24m-790-36c14.583 1.25 38.75 10.166 70 6 31.25-4.167 46.667-26.625 80-26s46.667 27.75 80 29 46.667-23.625 80-23 46.667 24.75 80 26 46.667-20.625 80-20 46.667 23.208 80 23c33.333-.209 46.667-25.042 80-24 33.333 1.041 46.667 27.958 80 29 33.333 1.041 63.333-19 80-24m-790-36c14.583 1.25 38.75 10.166 70 6 31.25-4.167 46.667-26.625 80-26s46.667 27.75 80 29 46.667-23.625 80-23 46.667 24.75 80 26 46.667-20.625 80-20 46.667 23.208 80 23c33.333-.209 46.667-25.042 80-24 33.333 1.041 46.667 27.958 80 29 33.333 1.041 63.333-19 80-24m-790-36c14.583 1.25 38.75 10.166 70 6 31.25-4.167 46.667-26.625 80-26s46.667 27.75 80 29 46.667-23.625 80-23 46.667 24.75 80 26 46.667-20.625 80-20 46.667 23.208 80 23c33.333-.209 46.667-25.042 80-24 33.333 1.041 46.667 27.958 80 29 33.333 1.041 63.333-19 80-24m-790-36c14.583 1.25 38.75 10.166 70 6 31.25-4.167 46.667-26.625 80-26s46.667 27.75 80 29 46.667-23.625 80-23 46.667 24.75 80 26 46.667-20.625 80-20 46.667 23.208 80 23c33.333-.209 46.667-25.042 80-24 33.333 1.041 46.667 27.958 80 29 33.333 1.041 63.333-19 80-24m-790-36c14.583 1.25 38.75 10.166 70 6 31.25-4.167 46.667-26.625 80-26s46.667 27.75 80 29 46.667-23.625 80-23 46.667 24.75 80 26 46.667-20.625 80-20 46.667 23.208 80 23c33.333-.209 46.667-25.042 80-24 33.333 1.041 46.667 27.958 80 29 33.333 1.041 63.333-19 80-24m-790-36c14.583 1.25 38.75 10.166 70 6 31.25-4.167 46.667-26.625 80-26s46.667 27.75 80 29 46.667-23.625 80-23 46.667 24.75 80 26 46.667-20.625 80-20 46.667 23.208 80 23c33.333-.209 46.667-25.042 80-24 33.333 1.041 46.667 27.958 80 29 33.333 1.041 63.333-19 80-24m-790-36c14.583 1.25 38.75 10.166 70 6 31.25-4.167 46.667-26.625 80-26s46.667 27.75 80 29 46.667-23.625 80-23 46.667 24.75 80 26 46.667-20.625 80-20 46.667 23.208 80 23c33.333-.209 46.667-25.042 80-24 33.333 1.041 46.667 27.958 80 29 33.333 1.041 63.333-19 80-24m-790-36c14.583 1.25 38.75 10.166 70 6 31.25-4.167 46.667-26.625 80-26s46.667 27.75 80 29 46.667-23.625 80-23 46.667 24.75 80 26 46.667-20.625 80-20 46.667 23.208 80 23c33.333-.209 46.667-25.042 80-24 33.333 1.041 46.667 27.958 80 29 33.333 1.041 63.333-19 80-24m-790-36c14.583 1.25 38.75 10.166 70 6 31.25-4.167 46.667-26.625 80-26s46.667 27.75 80 29 46.667-23.625 80-23 46.667 24.75 80 26 46.667-20.625 80-20 46.667 23.208 80 23c33.333-.209 46.667-25.042 80-24 33.333 1.041 46.667 27.958 80 29 33.333 1.041 63.333-19 80-24m-790-36c14.583 1.25 38.75 10.166 70 6 31.25-4.167 46.667-26.625 80-26s46.667 27.75 80 29 46.667-23.625 80-23 46.667 24.75 80 26 46.667-20.625 80-20 46.667 23.208 80 23c33.333-.209 46.667-25.042 80-24 33.333 1.041 46.667 27.958 80 29 33.333 1.041 63.333-19 80-24m-790-36c14.583 1.25 38.75 10.166 70 6 31.25-4.167 46.667-26.625 80-26s46.667 27.75 80 29 46.667-23.625 80-23 46.667 24.75 80 26 46.667-20.625 80-20 46.667 23.208 80 23c33.333-.209 46.667-25.042 80-24 33.333 1.041 46.667 27.958 80 29 33.333 1.041 63.333-19 80-24m-790-36c14.583 1.25 38.75 10.166 70 6 31.25-4.167 46.667-26.625 80-26s46.667 27.75 80 29 46.667-23.625 80-23 46.667 24.75 80 26 46.667-20.625 80-20 46.667 23.208 80 23c33.333-.209 46.667-25.042 80-24 33.333 1.041 46.667 27.958 80 29 33.333 1.041 63.333-19 80-24m-790-36c14.583 1.25 38.75 10.166 70 6 31.25-4.167 46.667-26.625 80-26s46.667 27.75 80 29 46.667-23.625 80-23 46.667 24.75 80 26 46.667-20.625 80-20 46.667 23.208 80 23c33.333-.209 46.667-25.042 80-24 33.333 1.041 46.667 27.958 80 29 33.333 1.041 63.333-19 80-24" />
</svg>
