<svg xmlns="http://www.w3.org/2000/svg" xml:space="preserve" id="Layer_1" x="0" y="0" version="1.1" viewBox="0 0 24 24"><path d="M20 1.7c-2.6-.4-5.3-.6-7.9-.6-2.7 0-5.3.2-8 .6C1.9 2.1.3 3.9.3 6.2v6.7c0 2.2 1.6 4.1 3.7 4.4 1.2.2 2.4.3 3.7.4.3 0 .5.2.7.4l2.9 4.4c.2.2.4.4.7.4.3 0 .5-.1.7-.4l3-4.4c.1-.2.4-.4.7-.4 1.2-.1 2.4-.2 3.7-.4 2.2-.3 3.7-2.2 3.7-4.4V6.2c-.1-2.3-1.7-4.1-3.8-4.5zm2 11.1c0 1.4-1 2.6-2.3 2.8-1.2.2-2.4.3-3.5.4-.8.1-1.5.5-1.9 1.1L12 20.5l-2.3-3.4c-.4-.6-1.1-1.1-1.9-1.1-1.2-.1-2.4-.2-3.5-.4C3 15.4 2 14.3 2 12.8V6.2c0-1.4 1-2.6 2.3-2.8 2.5-.4 5.1-.6 7.7-.6 2.6 0 5.2.2 7.7.6C21 3.6 22 4.7 22 6.2v6.6z" class="fill-inherit"></path><path d="M12.1 13c2.7 0 4.8-1.3 4.8-2.8H7.2c0 1.5 2.2 2.8 4.9 2.8z" class="fill-white"></path></svg>