<svg xmlns="http://www.w3.org/2000/svg" xml:space="preserve" id="Layer_1" x="0" y="0" version="1.1" viewBox="0 0 1000 259.9">
  <style>
    .st0{fill:#d69a16}.st1{fill:#160623}
  </style>
	<switch>
    <g>
      <g id="Logo">
        <g id="Icon">
          <path d="M153.7 0H11C4.9 0 0 4.9 0 11s4.9 11 11 11h142.7c6.1 0 11-4.9 11-11s-5-11-11-11z" class="st0"/>
			<path d="M91.8 165.6 155.1 56c2-3.4 2-7.6 0-11-2-3.4-5.6-5.5-9.5-5.5H19c-3.9 0-7.5 2.1-9.5 5.5s-2 7.6 0 11L69 159l-25.4 44c-11.7-10.6-19-25.9-19-42.8 0-6.1-4.9-11-11-11s-11 4.9-11 11c0 25.1 11.7 47.5 29.8 62.1l-12.3 21.3c-3 5.2-1.2 11.9 4 15 1.7 1 3.6 1.5 5.5 1.5 3.8 0 7.5-2 9.5-5.5l12.1-21c9.5 4.1 20 6.3 31 6.3 43.9 0 79.7-35.7 79.7-79.7 0-6.1-4.9-11-11-11s-11 4.9-11 11c0 31.8-25.9 57.7-57.7 57.7-7 0-13.7-1.3-20-3.6M81.6 137 38 61.4h88.6" class="st1"/>
        </g>
		  <g id="Name">
          <path id="Jesulonimii" d="M648.3 63.8h-13.5l9-19.3h10.3l-5.8 19.3zm-159.2-.5h-13.5l9-19.3H495l-5.9 19.3zm-264.6 84 7.8-9.7c.8-.9 2.2-1 3-.1 2.8 2.9 5.9 4.3 11.3 4.3 10.2 0 14.3-5.5 14.3-19.6V76.8c0-1.1.9-2 2-2h12.7c1.1 0 2 .9 2 2v45.4c0 20.2-6.8 36-30.6 36-10 0-17.2-2.7-22.4-8.3-.7-.7-.7-1.8-.1-2.6zm132.4-4.4v11.8c0 1.1-.9 2-2 2h-57.3c-1.1 0-2-.9-2-2V76.8c0-1.1.9-2 2-2H354c1.1 0 2 .9 2 2v11.8c0 1.1-.9 2-2 2h-41.3v16.7h39.4c1.1 0 2 .9 2 2v11.9c0 1.1-.9 2-2 2h-39.4v17.7h42.2c1.2 0 2 .9 2 2zm11 2.8 6.1-10.5c.6-1 1.9-1.3 2.8-.7 7 4.6 17.7 8 26.2 8s14.1-3.2 14.1-9.1c0-6.3-6.4-7.4-15.4-9.2-24.4-5.4-32.4-10.1-32.4-23.8 0-21.4 19.1-27 34.5-27 10.7 0 20 2.6 28.2 7.3 1 .5 1.3 1.8.8 2.7L426.7 94c-.5.9-1.7 1.3-2.7.8-6.9-3.9-14.3-5.7-21.2-5.7-10.2 0-15 3.7-15 9.4 0 4.9 4.1 6.9 16.5 9.1 11.6 2.2 31.6 6.1 31.6 24.8 0 16-13.6 25.8-33.4 25.8-14.1 0-27.4-5.5-33.9-9.8-.9-.6-1.2-1.7-.7-2.7zm82.7-26.3V76.8c0-1.1.9-2 2-2h13.2c1.1 0 2 .9 2 2v42.7c0 16.1 4.8 22.3 17.5 22.3s17.7-6.1 17.7-22.3V76.8c0-1.1.9-2 2-2h13.3c1.1 0 2 .9 2 2v42.5c0 22.3-7.5 38.8-35 38.8-26.9.1-34.7-15.9-34.7-38.7zm145.2 23.5v11.8c0 1.1-.9 2-2 2h-53.5c-1.1 0-2-.9-2-2V76.8c0-1.1.9-2 2-2h13.1c1.1 0 2 .9 2 2v64.1h38.5c1 0 1.9.9 1.9 2zm4.1-27.1c0-25 18.2-42.4 42.9-42.4s42.9 17.3 42.9 42.4c0 25-18.2 42.4-42.9 42.4s-42.9-17.4-42.9-42.4zm68.1 0c0-15.4-10.3-26.1-25.3-26.1s-25.1 10.6-25.1 26.1c0 15.4 10.2 26.1 25.1 26.1s25.3-10.7 25.3-26.1zm-34.9 58.8c0-5.4 4.3-9.8 9.8-9.8 5.3 0 9.7 4.4 9.7 9.8s-4.4 9.7-9.7 9.7c-5.5 0-9.8-4.4-9.8-9.7zm137.5-97.8v77.8c0 1.1-.9 2-2 2h-12.2c-.6 0-1.2-.3-1.6-.8l-37.5-51.1v49.9c0 1.1-.9 2-2 2h-12.8c-1.1 0-2-.9-2-2V76.8c0-1.1.9-2 2-2h12.2c.6 0 1.2.3 1.6.8l37.5 50.9V76.8c0-1.1.9-2 2-2h12.8c1.1 0 2 .9 2 2zm34.1 79.9h-13.1c-1.1 0-2-.9-2-2V76.8c0-1.1.9-2 2-2h13.1c1.1 0 2 .9 2 2v77.8c0 1.2-.9 2.1-2 2.1zm109.3 0h-12.8c-1.1 0-2-.9-2-2V96.6l-18.6 49.9c-.3.8-1 1.3-1.9 1.3h-15.8c-.8 0-1.6-.5-1.9-1.3l-18.6-49.9v58.1c0 1.1-.9 2-2 2h-12.8c-1.1 0-2-.9-2-2V76.8c0-1.1.9-2 2-2h21.5c.8 0 1.6.5 1.9 1.3l19.9 54.5 19.7-54.5c.3-.8 1-1.3 1.9-1.3H914c1.1 0 2 .9 2 2v77.8c0 1.2-.9 2.1-2 2.1zm36 0h-13.1c-1.1 0-2-.9-2-2V76.8c0-1.1.9-2 2-2H950c1.1 0 2 .9 2 2v77.8c0 1.2-.9 2.1-2 2.1zm36 0h-13.1c-1.1 0-2-.9-2-2V76.8c0-1.1.9-2 2-2H986c1.1 0 2 .9 2 2v77.8c0 1.2-.9 2.1-2 2.1z" class="st1"/>
			  <path d="M991.5 55.2h-61.1c-4.7 0-8.5-3.8-8.5-8.5s3.8-8.5 8.5-8.5h61.1c4.7 0 8.5 3.8 8.5 8.5s-3.8 8.5-8.5 8.5z" class="st0"/>
			  <text fill="gray" font-family="Typold-Regular" font-size="30.947" transform="translate(682.23 201.792)">Design. Code. Faith.</text>
        </g>
      </g>
    </g>
  </switch>
</svg>